<svg width="559" height="374" viewBox="0 0 559 374" fill="none" xmlns="http://www.w3.org/2000/svg">
<path opacity="0.6" d="M339.926 112.301V327.518C339.926 335.477 330.971 341.943 319.892 341.943H20.9235C9.87336 341.943 0.875 335.477 0.875 327.518V112.301C0.875 104.342 9.87336 97.876 20.9235 97.876H319.892C330.986 97.876 339.926 104.342 339.926 112.301Z" fill="#E5E8ED"/>
<path d="M319.793 342.674H20.8242C9.36374 342.674 0.0429688 335.871 0.0429688 327.518V112.285C0.0429688 103.932 9.36374 97.1436 20.8242 97.1436H319.793C331.238 97.1436 340.559 103.932 340.559 112.285V327.518C340.559 335.944 331.238 342.674 319.793 342.674ZM20.8242 98.6065C10.1698 98.6065 1.5085 104.736 1.5085 112.285V327.518C1.5085 335.066 10.1698 341.211 20.8242 341.211H319.793C330.432 341.211 339.094 335.066 339.094 327.518V112.285C339.094 104.736 330.432 98.6065 319.793 98.6065H20.8242Z" fill="#231F20"/>
<path d="M339.726 112.301V123.624H0.734375V112.301C0.734375 104.342 9.73274 97.876 20.7828 97.876H319.751C330.787 97.876 339.726 104.342 339.726 112.301Z" fill="#D7DADD"/>
<path d="M339.725 124.355H0.732766C0.538424 124.355 0.352042 124.278 0.214622 124.141C0.0772013 124.003 0 123.817 0 123.623V112.285C0 103.932 9.32078 97.1436 20.7812 97.1436H319.75C331.195 97.1436 340.516 103.932 340.516 112.285V123.623C340.517 123.725 340.496 123.825 340.455 123.917C340.415 124.01 340.356 124.094 340.281 124.162C340.207 124.231 340.119 124.284 340.023 124.317C339.928 124.35 339.826 124.363 339.725 124.355ZM1.45087 122.892H339.007V112.285C339.007 104.736 330.345 98.6065 319.706 98.6065H20.7373C10.0828 98.6065 1.42157 104.736 1.42157 112.285L1.45087 122.892Z" fill="#424551"/>
<path d="M318.179 178.017H199.91V296.078H318.179V178.017Z" fill="white"/>
<path d="M163.772 180.958H32.2109V183.884H163.772V180.958Z" fill="#00F0B5"/>
<path d="M119.718 189.706H32.2109V192.632H119.718V189.706Z" fill="#00F0B5"/>
<path d="M173.298 198.44H32.2109V201.367H173.298V198.44Z" fill="white"/>
<path d="M156.224 207.188H32.2109V210.115H156.224V207.188Z" fill="white"/>
<path d="M51.8633 216.522H33.207V217.985H51.8633V216.522Z" fill="white"/>
<path d="M67.6337 216.522H57.3164V217.985H67.6337V216.522Z" fill="white"/>
<path d="M82.3602 216.522H72.3945V217.985H82.3602V216.522Z" fill="white"/>
<path d="M135.399 233.771H32.2109V236.697H135.399V233.771Z" fill="#00F0B5"/>
<path d="M156.224 242.519H32.2109V245.445H156.224V242.519Z" fill="#00F0B5"/>
<path d="M115.16 251.253H32.2109V254.179H115.16V251.253Z" fill="white"/>
<path d="M140.953 260.001H32.2109V262.927H140.953V260.001Z" fill="white"/>
<path d="M42.5278 269.335H33.207V270.798H42.5278V269.335Z" fill="white"/>
<path d="M67.6345 269.335H47.293V270.798H67.6345V269.335Z" fill="white"/>
<path d="M79.136 269.335H72.3945V270.798H79.136V269.335Z" fill="white"/>
<path d="M147.592 286.583H32.2109V289.509H147.592V286.583Z" fill="#00F0B5"/>
<path d="M163.772 295.331H32.2109V298.257H163.772V295.331Z" fill="#00F0B5"/>
<path d="M122.297 304.067H32.2109V306.993H122.297V304.067Z" fill="white"/>
<path d="M106.425 312.8H32.2109V315.726H106.425V312.8Z" fill="white"/>
<path d="M57.4616 322.147H33.207V323.611H57.4616V322.147Z" fill="white"/>
<path d="M77.3814 322.147H63.6641V323.611H77.3814V322.147Z" fill="white"/>
<path d="M23.3284 115.563C25.9994 115.563 28.1647 113.402 28.1647 110.735C28.1647 108.069 25.9994 105.907 23.3284 105.907C20.6575 105.907 18.4922 108.069 18.4922 110.735C18.4922 113.402 20.6575 115.563 23.3284 115.563Z" fill="#00F0B5"/>
<path d="M37.8714 115.563C40.5424 115.563 42.7077 113.402 42.7077 110.735C42.7077 108.069 40.5424 105.907 37.8714 105.907C35.2004 105.907 33.0352 108.069 33.0352 110.735C33.0352 113.402 35.2004 115.563 37.8714 115.563Z" fill="white"/>
<path d="M52.4066 115.563C55.0775 115.563 57.2428 113.402 57.2428 110.735C57.2428 108.069 55.0775 105.907 52.4066 105.907C49.7356 105.907 47.5703 108.069 47.5703 110.735C47.5703 113.402 49.7356 115.563 52.4066 115.563Z" fill="white"/>
<path d="M360.71 218.806H240.375V307.915H360.71V218.806Z" fill="#E5E8ED"/>
<path d="M360.712 308.646H240.377C240.183 308.646 239.997 308.569 239.859 308.432C239.722 308.294 239.645 308.108 239.645 307.914V218.805C239.645 218.611 239.722 218.425 239.859 218.287C239.997 218.15 240.183 218.073 240.377 218.073H360.712C360.905 218.077 361.089 218.155 361.226 218.292C361.363 218.428 361.441 218.612 361.445 218.805V307.914C361.445 308.108 361.368 308.294 361.23 308.432C361.093 308.569 360.906 308.646 360.712 308.646ZM241.11 307.183H359.979V219.536H241.11V307.183Z" fill="#00F0B5"/>
<path d="M253.257 291.104H253.111C242.603 290.767 239.716 280.775 239.686 280.673C239.66 280.577 239.654 280.476 239.666 280.378C239.679 280.279 239.711 280.184 239.761 280.098C239.811 280.011 239.877 279.936 239.956 279.875C240.035 279.814 240.125 279.77 240.221 279.744C240.318 279.718 240.418 279.711 240.517 279.724C240.616 279.737 240.711 279.769 240.797 279.818C240.884 279.868 240.96 279.934 241.02 280.013C241.081 280.092 241.126 280.182 241.152 280.278C241.255 280.658 243.805 289.334 253.213 289.641H253.257C257.888 289.641 261.156 277.249 264.029 266.233C266.96 254.822 269.891 244.04 274.654 242.928C275.598 242.666 276.585 242.599 277.556 242.732C278.526 242.866 279.459 243.196 280.296 243.704C284.546 246.381 286.158 253.871 288.108 262.532C289.073 267.447 290.355 272.295 291.947 277.045C294.497 284.096 299.275 288.47 303.877 287.944C309.578 287.285 313.886 279.327 315.366 266.643C319.602 230.478 332.176 226.514 337.349 226.484H337.54C350.495 226.484 357.193 233.433 361.413 251.223C361.436 251.319 361.439 251.419 361.422 251.516C361.406 251.613 361.37 251.706 361.318 251.79C361.212 251.958 361.044 252.078 360.849 252.123C360.655 252.168 360.451 252.133 360.282 252.028C360.113 251.922 359.993 251.754 359.948 251.56C355.859 234.37 349.777 227.947 337.496 227.947H337.32C327.281 227.947 319.587 242.577 316.803 266.818C315.22 280.409 310.56 288.646 304.023 289.392C298.762 290.021 293.34 285.237 290.555 277.542C288.946 272.753 287.644 267.866 286.657 262.912C284.898 254.91 283.242 247.361 279.49 244.991C278.817 244.586 278.067 244.325 277.287 244.225C276.508 244.124 275.716 244.186 274.962 244.406C271.034 245.327 268.059 256.665 265.436 266.658C262.05 279.224 258.987 291.104 253.257 291.104Z" fill="#1E212C"/>
<path d="M269.378 228.007H252.569C252.374 228.007 252.188 227.93 252.051 227.793C251.913 227.656 251.836 227.469 251.836 227.275C251.836 227.081 251.913 226.895 252.051 226.758C252.188 226.621 252.374 226.544 252.569 226.544H269.378C269.573 226.544 269.759 226.621 269.896 226.758C270.034 226.895 270.111 227.081 270.111 227.275C270.107 227.468 270.029 227.652 269.892 227.789C269.756 227.925 269.572 228.003 269.378 228.007Z" fill="#B3B7BC"/>
<path d="M269.378 234.999H252.569C252.374 234.999 252.188 234.922 252.051 234.785C251.913 234.648 251.836 234.462 251.836 234.268C251.836 234.074 251.913 233.888 252.051 233.75C252.188 233.613 252.374 233.536 252.569 233.536H269.378C269.572 233.54 269.756 233.618 269.892 233.755C270.029 233.891 270.107 234.075 270.111 234.268C270.111 234.462 270.034 234.648 269.896 234.785C269.759 234.922 269.573 234.999 269.378 234.999Z" fill="#B3B7BC"/>
<path d="M260.966 241.862H252.569C252.374 241.862 252.188 241.785 252.051 241.648C251.913 241.511 251.836 241.325 251.836 241.131C251.836 240.937 251.913 240.751 252.051 240.614C252.188 240.476 252.374 240.399 252.569 240.399H260.966C261.161 240.399 261.347 240.476 261.484 240.614C261.622 240.751 261.699 240.937 261.699 241.131C261.699 241.325 261.622 241.511 261.484 241.648C261.347 241.785 261.161 241.862 260.966 241.862Z" fill="#B3B7BC"/>
<path d="M115.349 152.265V156.462H113.992V146.405H116.839C117.477 146.405 118.027 146.471 118.491 146.602C118.955 146.728 119.337 146.913 119.637 147.156C119.942 147.399 120.167 147.694 120.312 148.04C120.457 148.382 120.53 148.766 120.53 149.191C120.53 149.547 120.474 149.879 120.361 150.188C120.249 150.497 120.085 150.775 119.869 151.023C119.658 151.266 119.398 151.475 119.089 151.648C118.784 151.821 118.438 151.952 118.049 152.041C118.217 152.139 118.367 152.282 118.498 152.469L121.437 156.462H120.228C119.979 156.462 119.797 156.366 119.679 156.174L117.064 152.581C116.985 152.469 116.898 152.389 116.804 152.343C116.71 152.291 116.57 152.265 116.382 152.265H115.349ZM115.349 151.276H116.776C117.174 151.276 117.524 151.229 117.824 151.135C118.128 151.037 118.381 150.902 118.583 150.728C118.789 150.551 118.944 150.34 119.047 150.097C119.15 149.853 119.201 149.584 119.201 149.29C119.201 148.691 119.002 148.239 118.604 147.935C118.21 147.631 117.622 147.479 116.839 147.479H115.349V151.276Z" fill="white"/>
<path d="M130.443 146.405V147.514H125.607V150.855H129.522V151.921H125.607V155.353H130.443V156.462H124.236V146.405H130.443Z" fill="white"/>
<path d="M140.841 154.385C140.916 154.385 140.984 154.415 141.045 154.476L141.58 155.059C141.167 155.536 140.666 155.908 140.075 156.174C139.489 156.441 138.782 156.574 137.952 156.574C137.226 156.574 136.567 156.45 135.977 156.202C135.386 155.95 134.882 155.599 134.465 155.15C134.048 154.696 133.725 154.153 133.495 153.522C133.265 152.89 133.151 152.195 133.151 151.437C133.151 150.679 133.272 149.984 133.516 149.353C133.764 148.721 134.111 148.178 134.557 147.725C135.002 147.271 135.534 146.92 136.152 146.672C136.776 146.419 137.462 146.293 138.212 146.293C138.953 146.293 139.59 146.408 140.124 146.637C140.663 146.866 141.141 147.177 141.558 147.57L141.116 148.195C141.083 148.242 141.045 148.281 141.003 148.314C140.961 148.342 140.9 148.356 140.82 148.356C140.759 148.356 140.694 148.335 140.623 148.293C140.558 148.246 140.478 148.19 140.384 148.125C140.291 148.059 140.181 147.989 140.054 147.914C139.927 147.839 139.777 147.769 139.604 147.704C139.431 147.638 139.229 147.584 138.999 147.542C138.77 147.495 138.505 147.472 138.205 147.472C137.666 147.472 137.172 147.566 136.722 147.753C136.277 147.935 135.892 148.197 135.569 148.539C135.245 148.88 134.992 149.297 134.81 149.788C134.632 150.279 134.542 150.829 134.542 151.437C134.542 152.064 134.632 152.623 134.81 153.115C134.992 153.606 135.238 154.022 135.548 154.364C135.862 154.701 136.232 154.958 136.659 155.136C137.085 155.314 137.544 155.402 138.036 155.402C138.336 155.402 138.606 155.386 138.845 155.353C139.084 155.316 139.304 155.26 139.506 155.185C139.712 155.11 139.902 155.016 140.075 154.904C140.253 154.787 140.431 154.649 140.609 154.49C140.689 154.42 140.766 154.385 140.841 154.385Z" fill="white"/>
<path d="M150.909 146.405V147.514H146.073V150.855H149.988V151.921H146.073V155.353H150.909V156.462H144.702V146.405H150.909Z" fill="white"/>
<path d="M154.91 146.405C155.032 146.405 155.121 146.422 155.177 146.454C155.238 146.482 155.306 146.543 155.381 146.637L161.216 154.216C161.202 154.095 161.193 153.978 161.188 153.865C161.183 153.749 161.181 153.636 161.181 153.529V146.405H162.376V156.462H161.687C161.579 156.462 161.488 156.443 161.413 156.406C161.343 156.369 161.272 156.305 161.202 156.217L155.374 148.644C155.384 148.761 155.391 148.876 155.395 148.988C155.4 149.1 155.402 149.203 155.402 149.297V156.462H154.207V146.405H154.91Z" fill="white"/>
<path d="M173.032 146.405V147.549H169.777V156.462H168.413V147.549H165.144V146.405H173.032Z" fill="white"/>
<path d="M181.351 152.7V156.462H179.994V146.405H182.968C183.605 146.405 184.158 146.48 184.627 146.63C185.1 146.775 185.492 146.983 185.801 147.254C186.11 147.526 186.34 147.853 186.49 148.237C186.645 148.621 186.722 149.049 186.722 149.521C186.722 149.989 186.64 150.417 186.476 150.806C186.312 151.194 186.07 151.528 185.752 151.809C185.438 152.09 185.046 152.31 184.578 152.469C184.109 152.623 183.572 152.7 182.968 152.7H181.351ZM181.351 151.62H182.968C183.357 151.62 183.699 151.568 183.994 151.465C184.294 151.362 184.545 151.22 184.746 151.037C184.948 150.85 185.1 150.628 185.203 150.37C185.307 150.113 185.358 149.83 185.358 149.521C185.358 148.88 185.159 148.38 184.761 148.019C184.367 147.659 183.769 147.479 182.968 147.479H181.351V151.62Z" fill="white"/>
<path d="M199.142 151.437C199.142 152.19 199.022 152.883 198.783 153.515C198.544 154.142 198.207 154.682 197.771 155.136C197.335 155.59 196.81 155.943 196.196 156.195C195.587 156.443 194.912 156.567 194.171 156.567C193.431 156.567 192.756 156.443 192.147 156.195C191.537 155.943 191.015 155.59 190.579 155.136C190.143 154.682 189.806 154.142 189.567 153.515C189.328 152.883 189.208 152.19 189.208 151.437C189.208 150.684 189.328 149.994 189.567 149.367C189.806 148.735 190.143 148.193 190.579 147.739C191.015 147.28 191.537 146.925 192.147 146.672C192.756 146.419 193.431 146.293 194.171 146.293C194.912 146.293 195.587 146.419 196.196 146.672C196.81 146.925 197.335 147.28 197.771 147.739C198.207 148.193 198.544 148.735 198.783 149.367C199.022 149.994 199.142 150.684 199.142 151.437ZM197.743 151.437C197.743 150.82 197.658 150.265 197.489 149.774C197.321 149.283 197.082 148.869 196.772 148.532C196.463 148.19 196.088 147.928 195.648 147.746C195.207 147.563 194.715 147.472 194.171 147.472C193.632 147.472 193.143 147.563 192.702 147.746C192.261 147.928 191.884 148.19 191.57 148.532C191.261 148.869 191.022 149.283 190.853 149.774C190.684 150.265 190.6 150.82 190.6 151.437C190.6 152.055 190.684 152.609 190.853 153.101C191.022 153.587 191.261 154.001 191.57 154.343C191.884 154.68 192.261 154.939 192.702 155.122C193.143 155.299 193.632 155.388 194.171 155.388C194.715 155.388 195.207 155.299 195.648 155.122C196.088 154.939 196.463 154.68 196.772 154.343C197.082 154.001 197.321 153.587 197.489 153.101C197.658 152.609 197.743 152.055 197.743 151.437Z" fill="white"/>
<path d="M207.498 147.977C207.456 148.047 207.411 148.101 207.365 148.139C207.318 148.171 207.257 148.188 207.182 148.188C207.102 148.188 207.008 148.148 206.901 148.069C206.797 147.989 206.664 147.902 206.5 147.809C206.341 147.711 206.146 147.622 205.916 147.542C205.691 147.463 205.417 147.423 205.094 147.423C204.789 147.423 204.52 147.465 204.285 147.549C204.051 147.629 203.854 147.739 203.695 147.879C203.54 148.019 203.423 148.186 203.343 148.377C203.264 148.564 203.224 148.768 203.224 148.988C203.224 149.269 203.292 149.503 203.428 149.69C203.568 149.872 203.751 150.029 203.976 150.16C204.206 150.291 204.464 150.406 204.749 150.504C205.04 150.597 205.335 150.696 205.635 150.799C205.94 150.902 206.235 151.018 206.521 151.149C206.812 151.276 207.069 151.437 207.294 151.634C207.524 151.83 207.707 152.071 207.843 152.357C207.983 152.642 208.053 152.993 208.053 153.409C208.053 153.849 207.979 154.263 207.829 154.651C207.679 155.035 207.458 155.37 207.168 155.655C206.882 155.94 206.528 156.165 206.106 156.329C205.689 156.493 205.213 156.574 204.679 156.574C204.028 156.574 203.432 156.457 202.893 156.224C202.359 155.985 201.902 155.664 201.523 155.262L201.916 154.616C201.954 154.565 201.998 154.523 202.05 154.49C202.106 154.453 202.167 154.434 202.233 154.434C202.331 154.434 202.444 154.488 202.57 154.595C202.697 154.698 202.854 154.813 203.041 154.939C203.233 155.066 203.463 155.183 203.73 155.29C204.002 155.393 204.332 155.445 204.721 155.445C205.045 155.445 205.333 155.4 205.586 155.311C205.839 155.222 206.052 155.098 206.226 154.939C206.404 154.775 206.54 154.581 206.633 154.357C206.727 154.132 206.774 153.882 206.774 153.606C206.774 153.302 206.704 153.054 206.563 152.862C206.427 152.665 206.247 152.502 206.022 152.371C205.797 152.24 205.539 152.13 205.249 152.041C204.963 151.947 204.667 151.854 204.363 151.76C204.063 151.662 203.768 151.55 203.477 151.423C203.191 151.297 202.936 151.133 202.711 150.932C202.486 150.731 202.303 150.48 202.162 150.181C202.026 149.877 201.958 149.503 201.958 149.058C201.958 148.703 202.026 148.359 202.162 148.026C202.303 147.694 202.504 147.399 202.767 147.142C203.029 146.885 203.353 146.679 203.737 146.525C204.126 146.37 204.571 146.293 205.073 146.293C205.635 146.293 206.148 146.382 206.612 146.56C207.076 146.737 207.482 146.995 207.829 147.332L207.498 147.977Z" fill="white"/>
<path d="M217.991 146.405V147.549H214.736V156.462H213.372V147.549H210.103V146.405H217.991Z" fill="white"/>
<path d="M225.918 147.977C225.876 148.047 225.832 148.101 225.785 148.139C225.738 148.171 225.677 148.188 225.602 148.188C225.522 148.188 225.429 148.148 225.321 148.069C225.218 147.989 225.084 147.902 224.92 147.809C224.761 147.711 224.566 147.622 224.337 147.542C224.112 147.463 223.838 147.423 223.514 147.423C223.21 147.423 222.94 147.465 222.706 147.549C222.471 147.629 222.275 147.739 222.115 147.879C221.961 148.019 221.843 148.186 221.764 148.377C221.684 148.564 221.644 148.768 221.644 148.988C221.644 149.269 221.712 149.503 221.848 149.69C221.989 149.872 222.171 150.029 222.396 150.16C222.626 150.291 222.884 150.406 223.17 150.504C223.46 150.597 223.756 150.696 224.055 150.799C224.36 150.902 224.655 151.018 224.941 151.149C225.232 151.276 225.49 151.437 225.715 151.634C225.944 151.83 226.127 152.071 226.263 152.357C226.403 152.642 226.474 152.993 226.474 153.409C226.474 153.849 226.399 154.263 226.249 154.651C226.099 155.035 225.879 155.37 225.588 155.655C225.302 155.94 224.948 156.165 224.526 156.329C224.109 156.493 223.634 156.574 223.099 156.574C222.448 156.574 221.853 156.457 221.314 156.224C220.779 155.985 220.323 155.664 219.943 155.262L220.337 154.616C220.374 154.565 220.419 154.523 220.47 154.49C220.526 154.453 220.587 154.434 220.653 154.434C220.751 154.434 220.864 154.488 220.99 154.595C221.117 154.698 221.274 154.813 221.461 154.939C221.654 155.066 221.883 155.183 222.15 155.29C222.422 155.393 222.753 155.445 223.142 155.445C223.465 155.445 223.753 155.4 224.006 155.311C224.259 155.222 224.473 155.098 224.646 154.939C224.824 154.775 224.96 154.581 225.054 154.357C225.147 154.132 225.194 153.882 225.194 153.606C225.194 153.302 225.124 153.054 224.983 152.862C224.848 152.665 224.667 152.502 224.442 152.371C224.217 152.24 223.959 152.13 223.669 152.041C223.383 151.947 223.088 151.854 222.783 151.76C222.483 151.662 222.188 151.55 221.897 151.423C221.611 151.297 221.356 151.133 221.131 150.932C220.906 150.731 220.723 150.48 220.583 150.181C220.447 149.877 220.379 149.503 220.379 149.058C220.379 148.703 220.447 148.359 220.583 148.026C220.723 147.694 220.925 147.399 221.187 147.142C221.45 146.885 221.773 146.679 222.157 146.525C222.546 146.37 222.992 146.293 223.493 146.293C224.055 146.293 224.569 146.382 225.033 146.56C225.497 146.737 225.902 146.995 226.249 147.332L225.918 147.977Z" fill="white"/>
<path d="M288.681 68.3316L256.284 56.9858L263.625 35.9835L296.022 47.3293L288.681 68.3316ZM257.988 56.1692L287.774 66.6106L294.231 48.1279L264.445 37.6865L257.988 56.1692Z" fill="white"/>
<path d="M266.975 44.0307L266.539 45.2803L288.238 52.8423L288.674 51.5926L266.975 44.0307Z" fill="white"/>
<path d="M264.878 50.7065L264.441 51.9561L286.14 59.5203L286.576 58.2707L264.878 50.7065Z" fill="white"/>
<path d="M97.3079 39.1372C99.1201 42.7301 101.942 45.7175 105.426 47.7318C108.909 49.746 112.904 50.6994 116.917 50.4744C120.93 50.2495 124.787 48.8562 128.013 46.4659C131.239 44.0755 133.694 40.7924 135.076 37.0204C136.458 33.2485 136.706 29.1522 135.79 25.2354C134.874 21.3187 132.834 17.7523 129.921 14.9751C127.007 12.1979 123.348 10.331 119.393 9.604C115.437 8.877 111.358 9.32165 107.658 10.8832L116.938 29.256L97.3079 39.1372Z" fill="#00F0B5"/>
<path d="M94.233 38.0056L113.863 28.1244L104.573 9.73106C104.161 9.89844 103.736 10.0976 103.325 10.3046C100.907 11.5215 98.7544 13.2034 96.989 15.2543C95.2237 17.3052 93.8804 19.6848 93.0361 22.2573C92.1918 24.8297 91.863 27.5445 92.0683 30.2467C92.2737 32.9488 93.0092 35.5854 94.233 38.0056Z" fill="#E5E8ED"/>
<path d="M172.311 327.359L133.156 342.07L144.946 373.341L184.101 358.63L172.311 327.359Z" fill="white"/>
<path d="M184.254 359.044L145.099 373.755C144.989 373.794 144.868 373.788 144.762 373.74C144.655 373.692 144.572 373.605 144.528 373.497L132.738 342.226C132.697 342.116 132.701 341.994 132.749 341.887C132.798 341.78 132.887 341.697 132.997 341.656L172.152 326.945C172.262 326.903 172.384 326.907 172.491 326.956C172.598 327.004 172.681 327.093 172.723 327.203L184.513 358.474C184.552 358.584 184.546 358.705 184.498 358.811C184.45 358.917 184.363 359.001 184.254 359.044ZM145.202 372.771L183.527 358.371L172.049 327.929L133.724 342.328L145.202 372.771Z" fill="white"/>
<path d="M142.198 366.552C142.117 366.583 142.028 366.589 141.943 366.569C141.858 366.55 141.781 366.506 141.721 366.443C141.661 366.38 141.621 366.301 141.606 366.215C141.591 366.13 141.601 366.042 141.636 365.962L149.616 348.346C149.853 347.823 150.196 347.356 150.623 346.972C151.05 346.589 151.551 346.297 152.096 346.117C152.642 345.936 153.218 345.87 153.79 345.922C154.362 345.975 154.917 346.145 155.42 346.422L170.175 354.53C170.28 354.581 170.361 354.67 170.403 354.779C170.444 354.888 170.441 355.008 170.395 355.115C170.368 355.168 170.331 355.214 170.286 355.251C170.24 355.288 170.188 355.316 170.131 355.332C170.075 355.349 170.016 355.353 169.957 355.346C169.899 355.339 169.843 355.32 169.792 355.291L155.026 347.207C154.632 346.985 154.195 346.848 153.745 346.807C153.294 346.765 152.84 346.82 152.412 346.966C151.982 347.108 151.586 347.337 151.25 347.641C150.913 347.944 150.645 348.314 150.46 348.727L142.453 366.354C142.397 366.451 142.306 366.522 142.198 366.552Z" fill="#424551"/>
<path d="M180.411 348.814C180.353 348.836 180.292 348.846 180.23 348.842C180.168 348.839 180.108 348.823 180.053 348.794L172.424 344.947C172.022 344.744 171.582 344.626 171.131 344.603C170.681 344.579 170.23 344.65 169.808 344.81C169.383 344.967 168.996 345.213 168.672 345.529C168.348 345.846 168.094 346.227 167.927 346.647L165.574 352.425C165.553 352.479 165.521 352.528 165.48 352.57C165.439 352.611 165.391 352.644 165.337 352.667C165.284 352.69 165.226 352.703 165.168 352.703C165.11 352.704 165.052 352.693 164.998 352.672C164.944 352.65 164.895 352.618 164.853 352.578C164.811 352.537 164.778 352.489 164.755 352.436C164.732 352.382 164.72 352.325 164.719 352.267C164.718 352.209 164.729 352.151 164.75 352.097L167.076 346.33C167.292 345.797 167.616 345.314 168.028 344.911C168.44 344.509 168.93 344.196 169.469 343.992C170.002 343.798 170.57 343.715 171.136 343.748C171.703 343.781 172.257 343.929 172.764 344.182L180.39 348.02C180.468 348.057 180.534 348.117 180.579 348.191C180.624 348.265 180.647 348.351 180.643 348.438C180.64 348.525 180.611 348.609 180.56 348.679C180.509 348.75 180.438 348.803 180.357 348.834L180.411 348.814Z" fill="#424551"/>
<path d="M161.939 341.216C163.134 340.767 163.739 339.435 163.289 338.241C162.839 337.048 161.505 336.445 160.309 336.894C159.114 337.343 158.509 338.675 158.959 339.868C159.409 341.062 160.743 341.665 161.939 341.216Z" fill="white"/>
<path d="M162.089 341.603C161.578 341.797 161.02 341.835 160.486 341.713C159.953 341.59 159.467 341.312 159.092 340.915C158.717 340.517 158.468 340.017 158.378 339.477C158.288 338.938 158.359 338.385 158.585 337.887C158.81 337.388 159.178 336.968 159.642 336.679C160.107 336.39 160.647 336.245 161.194 336.262C161.741 336.279 162.271 336.459 162.716 336.777C163.161 337.095 163.502 337.538 163.695 338.049C163.952 338.733 163.928 339.491 163.627 340.157C163.327 340.823 162.773 341.343 162.089 341.603ZM160.456 337.272C160.107 337.401 159.804 337.631 159.586 337.932C159.368 338.234 159.244 338.593 159.231 338.965C159.218 339.336 159.316 339.703 159.512 340.019C159.709 340.335 159.994 340.586 160.334 340.74C160.673 340.893 161.05 340.942 161.418 340.881C161.785 340.82 162.126 340.652 162.398 340.397C162.669 340.142 162.858 339.812 162.941 339.45C163.024 339.087 162.998 338.708 162.865 338.361C162.683 337.907 162.331 337.543 161.883 337.346C161.435 337.149 160.928 337.135 160.47 337.308L160.456 337.272Z" fill="#424551"/>
<path d="M428.03 172.504L474.107 155.375L489.423 271.646L547 323.749L518.353 371.779L510.412 353.478C390.436 322.9 428.03 172.504 428.03 172.504Z" fill="#00F0B5"/>
<path opacity="0.8" d="M430.477 279.409C436.325 250.714 452.001 230.171 470.424 230.171C475.363 230.171 480.102 231.652 484.51 234.366L489.421 271.644L512.268 292.319C512.629 296.214 512.82 300.208 512.82 304.282C512.82 322.184 509.189 338.605 503.143 351.414C461.391 338.379 440.404 309.898 430.477 279.409Z" fill="#424551"/>
<path d="M439.38 158.16C439.38 158.16 430.792 298.094 455.049 364.348L449.982 371.779H493.126C493.126 371.779 497.84 193.791 497.84 155.375L439.38 158.16Z" fill="#00F0B5"/>
<path d="M453.713 49.8923V68.0781L476.281 73.615V42.9259L453.713 37.3887V49.8923Z" fill="#D7DADD"/>
<path d="M466.459 56.1833C466.126 56.1833 465.856 55.9136 465.856 55.5809C465.856 55.2482 466.126 54.9785 466.459 54.9785C466.792 54.9785 467.062 55.2482 467.062 55.5809C467.062 55.9136 466.792 56.1833 466.459 56.1833Z" fill="#1E212C"/>
<path d="M457.186 56.1833C456.852 56.1833 456.582 55.9136 456.582 55.5809C456.582 55.2482 456.852 54.9785 457.186 54.9785C457.519 54.9785 457.789 55.2482 457.789 55.5809C457.789 55.9136 457.519 56.1833 457.186 56.1833Z" fill="#1E212C"/>
<path fill-rule="evenodd" clip-rule="evenodd" d="M460.383 49.8923C460.383 49.6298 460.17 49.417 459.907 49.417H455.249C454.986 49.417 454.773 49.6298 454.773 49.8923C454.773 50.1547 454.986 50.3675 455.249 50.3675H459.432V59.1755C459.432 59.4379 459.645 59.6507 459.907 59.6507C460.17 59.6507 460.383 59.4379 460.383 59.1755V49.8923Z" fill="#1E212C"/>
<path fill-rule="evenodd" clip-rule="evenodd" d="M468.07 49.8932C468.07 49.6308 467.857 49.418 467.595 49.418H462.936C462.674 49.418 462.461 49.6308 462.461 49.8932C462.461 50.1557 462.674 50.3685 462.936 50.3685H467.595C467.857 50.3685 468.07 50.1557 468.07 49.8932Z" fill="#1E212C"/>
<path d="M474.791 54.6476V57.8715C476.533 57.8715 477.945 56.4617 477.945 54.7227C477.945 54.6261 477.941 54.5306 477.932 54.4361C477.756 52.4809 474.791 52.6845 474.791 54.6476Z" fill="#EDEEEF"/>
<path fill-rule="evenodd" clip-rule="evenodd" d="M477.942 54.2461C477.68 54.2461 477.467 54.4589 477.467 54.7214C477.467 56.1973 476.268 57.3948 474.788 57.3948C474.526 57.3948 474.313 57.6076 474.313 57.8701C474.313 58.1326 474.526 58.3453 474.788 58.3453C476.792 58.3453 478.418 56.7234 478.418 54.7214C478.418 54.4589 478.205 54.2461 477.942 54.2461Z" fill="white"/>
<path fill-rule="evenodd" clip-rule="evenodd" d="M465.134 57.7998C464.871 57.7998 464.658 58.0126 464.658 58.2751C464.658 59.7721 463.443 60.9867 461.942 60.9867C461.679 60.9867 461.466 61.1995 461.466 61.4619C461.466 61.7244 461.679 61.9372 461.942 61.9372C463.967 61.9372 465.609 60.2982 465.609 58.2751C465.609 58.0126 465.396 57.7998 465.134 57.7998Z" fill="#1E212C"/>
<path fill-rule="evenodd" clip-rule="evenodd" d="M453.249 67.9627C453.186 68.2176 453.342 68.4749 453.597 68.5375L476.165 74.0749C476.42 74.1375 476.677 73.9816 476.74 73.7267C476.803 73.4718 476.647 73.2144 476.392 73.1518L453.824 67.6144C453.569 67.5518 453.311 67.7077 453.249 67.9627Z" fill="white"/>
<path fill-rule="evenodd" clip-rule="evenodd" d="M459.443 59.0691C459.38 59.324 459.536 59.5814 459.791 59.644L461.829 60.1439C462.084 60.2065 462.342 60.0506 462.404 59.7957C462.467 59.5407 462.311 59.2834 462.056 59.2208L460.018 58.7208C459.763 58.6583 459.506 58.8142 459.443 59.0691Z" fill="#1E212C"/>
<path d="M497.84 106.182V155.376L428.027 172.505V117.716C428.027 98.2884 441.313 81.371 460.212 76.7341H460.212C469.276 74.5104 478.86 76.5691 486.205 82.3173C493.55 88.0655 497.84 96.865 497.84 106.182V106.182Z" fill="#D7DADD"/>
<path fill-rule="evenodd" clip-rule="evenodd" d="M439.404 157.685C439.142 157.668 438.917 157.868 438.9 158.13L439.375 158.159L439.85 158.188C439.866 157.926 439.666 157.701 439.404 157.685ZM439.375 158.159C439.85 158.188 439.85 158.188 439.85 158.189L439.844 158.289C439.84 158.356 439.834 158.457 439.826 158.59C439.81 158.856 439.788 159.253 439.759 159.773C439.702 160.812 439.622 162.347 439.528 164.324C439.341 168.277 439.1 173.999 438.887 181.073C438.461 195.221 438.146 214.775 438.588 236.398C439.473 279.665 443.392 331.139 455.49 364.183C455.581 364.429 455.454 364.702 455.207 364.793C454.961 364.883 454.688 364.756 454.597 364.51C442.438 331.3 438.523 279.68 437.638 236.417C437.195 214.775 437.511 195.204 437.937 181.044C438.15 173.964 438.391 168.237 438.578 164.279C438.672 162.299 438.753 160.763 438.81 159.721C438.838 159.2 438.861 158.802 438.877 158.535C438.884 158.401 438.89 158.3 438.894 158.232L438.9 158.131C438.9 158.13 438.9 158.13 439.375 158.159Z" fill="#787A80"/>
<path fill-rule="evenodd" clip-rule="evenodd" d="M452.575 42.2765C452.321 42.3412 452.167 42.5998 452.231 42.8542C452.844 45.2601 454.386 46.5884 456.321 47.1966C458.222 47.7941 460.491 47.6966 462.629 47.3288C464.777 46.9595 466.845 46.3081 468.371 45.7519C469.135 45.4733 469.766 45.2175 470.207 45.031C470.235 45.0194 470.262 45.008 470.288 44.9969C470.622 48.3422 471.435 50.4219 472.212 51.6908C472.625 52.3662 473.027 52.8083 473.336 53.0867C473.49 53.2257 473.621 53.3233 473.718 53.3885C473.766 53.421 473.806 53.4454 473.836 53.4628C473.85 53.4714 473.863 53.4784 473.873 53.4837L473.886 53.4904L473.89 53.4929L473.892 53.494L473.893 53.4944C473.894 53.4947 473.894 53.4949 474.106 53.0695L473.894 53.4949C474.129 53.612 474.415 53.5165 474.532 53.2816C474.648 53.0483 474.555 52.7652 474.323 52.6466M474.319 52.6446L474.32 52.6449L474.321 52.6456L474.323 52.6466C474.324 52.6471 474.324 52.6469 474.323 52.6466C474.324 52.6467 474.323 52.6466 474.323 52.6466C474.322 52.6459 474.319 52.644 474.313 52.6409C474.301 52.634 474.28 52.6209 474.249 52.6004C474.189 52.5595 474.093 52.4891 473.973 52.3806C473.732 52.164 473.389 51.7927 473.023 51.1945C472.29 49.9985 471.456 47.8813 471.177 44.2579C471.165 44.1023 471.077 43.9625 470.942 43.8839C470.808 43.8053 470.643 43.7978 470.501 43.8639L470.499 43.8649L470.492 43.8684L470.46 43.8831C470.431 43.8962 470.388 43.9157 470.332 43.941C470.218 43.9915 470.051 44.065 469.837 44.1556C469.408 44.3369 468.792 44.5866 468.045 44.8588C466.548 45.4043 464.539 46.0359 462.468 46.3921C460.387 46.7499 458.295 46.8205 456.606 46.2898C454.952 45.7698 453.676 44.6737 453.153 42.62C453.088 42.3656 452.83 42.2118 452.575 42.2765M470.501 43.8639C470.501 43.8639 470.501 43.8639 470.501 43.8639V43.8639Z" fill="white"/>
<path fill-rule="evenodd" clip-rule="evenodd" d="M478.581 39.1691L476.513 52.9989C476.474 53.2585 476.653 53.5004 476.913 53.5392C477.173 53.578 477.415 53.399 477.453 53.1394L479.581 38.9137C479.615 38.6868 479.482 38.4681 479.265 38.3938L479.11 38.8434C479.265 38.3938 479.265 38.3939 479.265 38.3938L479.26 38.3922L479.247 38.3879L479.198 38.3714C479.155 38.3571 479.092 38.336 479.01 38.309C478.845 38.2549 478.603 38.1769 478.293 38.0805C477.673 37.8876 476.782 37.6209 475.692 37.3247C473.513 36.7326 470.536 36.0211 467.348 35.5463C464.163 35.0721 460.746 34.8306 457.696 35.191C454.654 35.5503 451.902 36.5171 450.141 38.5306C450.095 38.584 450.06 38.6471 450.041 38.7153L450.499 38.8434C450.041 38.7153 450.041 38.7151 450.041 38.7153L450.041 38.7165L450.041 38.7182L450.039 38.7229L450.035 38.738C450.032 38.7505 450.027 38.768 450.022 38.7902C450.011 38.8345 449.997 38.8978 449.98 38.9786C449.948 39.1402 449.907 39.3721 449.874 39.6627C449.809 40.2433 449.772 41.0613 449.889 42.0216C450.121 43.9483 450.967 46.4392 453.388 48.7179C453.579 48.8978 453.88 48.8887 454.06 48.6976C454.24 48.5065 454.231 48.2057 454.04 48.0258C451.805 45.9231 451.043 43.6498 450.833 41.9076C450.727 41.0335 450.76 40.2909 450.819 39.7695C450.849 39.5091 450.885 39.3047 450.912 39.1677C450.92 39.1304 450.927 39.0981 450.933 39.0711C452.474 37.3706 454.914 36.4768 457.808 36.135C460.74 35.7886 464.064 36.0183 467.208 36.4864C470.348 36.954 473.287 37.656 475.442 38.2419C476.52 38.5347 477.4 38.798 478.01 38.988C478.24 39.0596 478.432 39.1207 478.581 39.1691Z" fill="white"/>
<path fill-rule="evenodd" clip-rule="evenodd" d="M481.909 79.5461C481.802 79.786 481.911 80.0668 482.151 80.1734L482.184 80.0974C482.151 80.1734 482.151 80.1733 482.151 80.1734L482.152 80.1739L482.157 80.1761L482.178 80.1857C482.197 80.1944 482.226 80.2076 482.265 80.2255C482.343 80.2611 482.459 80.3152 482.61 80.3878C482.914 80.533 483.362 80.7526 483.934 81.0481C485.077 81.6392 486.716 82.534 488.693 83.7458C492.646 86.17 497.945 89.8604 503.322 94.9231C514.076 105.049 525.124 120.643 526.392 142.57C526.706 148.007 525.582 152.525 523.383 156.232C521.183 159.942 517.89 162.866 513.827 165.086C505.688 169.531 494.498 171.122 483.012 170.523C471.533 169.924 459.818 167.14 450.66 162.895C446.081 160.772 442.157 158.292 439.222 155.55C436.286 152.807 434.363 149.824 433.734 146.696C433.707 146.558 433.62 146.44 433.497 146.373L433.496 146.372L433.473 146.36L433.402 146.32C433.355 146.293 433.29 146.257 433.211 146.212C433.186 146.198 433.161 146.184 433.134 146.168C432.904 146.037 432.578 145.849 432.198 145.621C431.437 145.164 430.465 144.553 429.606 143.928C429.177 143.615 428.781 143.303 428.457 143.009C428.128 142.71 427.894 142.449 427.767 142.241C427.69 142.115 427.674 142.048 427.672 142.022C427.699 141.998 427.803 141.928 428.109 141.879C428.51 141.815 429.889 141.757 432.058 141.71C434.205 141.664 437.081 141.628 440.436 141.602C447.145 141.549 455.759 141.531 464.265 141.531C472.77 141.531 481.165 141.549 487.434 141.566C490.568 141.575 493.171 141.584 494.99 141.591C495.899 141.594 496.613 141.597 497.099 141.599L497.844 141.602C497.844 141.602 497.844 141.602 497.846 141.126L497.844 141.602C498.033 141.602 498.204 141.492 498.281 141.32C498.357 141.148 498.325 140.947 498.199 140.807L479.462 120.138C479.286 119.944 478.985 119.929 478.791 120.105C478.596 120.282 478.581 120.582 478.758 120.777L496.77 140.647C496.311 140.645 495.713 140.643 494.993 140.64C493.174 140.634 490.571 140.625 487.436 140.616C481.167 140.598 472.771 140.58 464.265 140.58C455.759 140.58 447.141 140.598 440.428 140.651C437.072 140.678 434.191 140.713 432.037 140.76C429.906 140.806 428.441 140.863 427.958 140.94C427.489 141.016 427.034 141.184 426.824 141.581C426.603 141.999 426.77 142.434 426.956 142.737C427.153 143.06 427.465 143.392 427.818 143.712C428.176 144.037 428.601 144.371 429.046 144.696C429.938 145.345 430.937 145.972 431.709 146.436C432.096 146.668 432.427 146.86 432.663 146.994C432.733 147.034 432.795 147.069 432.847 147.099C433.57 150.4 435.609 153.475 438.573 156.244C441.602 159.074 445.619 161.606 450.26 163.757C459.541 168.059 471.377 170.867 482.963 171.472C494.541 172.076 505.929 170.482 514.283 165.92C518.465 163.635 521.897 160.601 524.201 156.717C526.506 152.83 527.665 148.12 527.341 142.515C526.056 120.272 514.843 104.465 503.974 94.2313C498.539 89.1143 493.186 85.3856 489.19 82.9357C487.192 81.7104 485.532 80.8044 484.37 80.2039C483.79 79.9036 483.333 79.6796 483.021 79.5304C482.865 79.4557 482.745 79.3997 482.663 79.3622C482.622 79.3434 482.591 79.3293 482.57 79.3197L482.546 79.3088L482.539 79.3059L482.538 79.3051C482.537 79.3049 482.537 79.3047 482.367 79.6867L482.537 79.3047C482.297 79.1982 482.016 79.3062 481.909 79.5461Z" fill="white"/>
<path fill-rule="evenodd" clip-rule="evenodd" d="M442.938 85.5555C442.77 85.3531 442.471 85.3245 442.268 85.4916L442.571 85.8581C442.268 85.4916 442.268 85.4918 442.268 85.492L442.267 85.4928L442.263 85.4956L442.251 85.5058C442.24 85.5148 442.225 85.5278 442.204 85.545C442.164 85.5795 442.104 85.6304 442.026 85.6979C441.87 85.8327 441.643 86.0333 441.352 86.2988C440.771 86.8298 439.938 87.6204 438.923 88.6631C436.893 90.7485 434.135 93.8435 431.218 97.8892C425.558 105.74 419.29 117.181 416.578 131.776C416.525 131.68 416.47 131.579 416.412 131.473C415.89 130.52 415.139 129.158 414.223 127.524C412.391 124.256 409.898 119.898 407.253 115.538C404.609 111.181 401.808 106.813 399.361 103.53C398.139 101.889 396.995 100.506 395.996 99.5287C395.497 99.0402 395.022 98.6413 394.581 98.3618C394.149 98.0878 393.702 97.8966 393.267 97.8966C392.287 97.8966 391.033 97.8493 389.672 97.7979C389.375 97.7867 389.074 97.7754 388.769 97.7642C387.072 97.7023 385.277 97.6487 383.719 97.6844C382.186 97.7196 380.801 97.8412 379.97 98.1687C379.572 98.326 379.13 98.5977 379.031 99.0913C378.933 99.5818 379.225 100.032 379.601 100.407C381.104 101.908 383.396 102.855 385.257 103.427C386.196 103.716 387.045 103.914 387.658 104.04C387.722 104.053 387.784 104.065 387.843 104.077C387.748 104.203 387.646 104.344 387.542 104.499C387.104 105.148 386.597 106.065 386.385 107.088C386.169 108.123 386.253 109.284 387.027 110.36C387.75 111.365 389.034 112.235 391.082 112.879C391.081 112.974 391.079 113.088 391.077 113.218C391.072 113.675 391.07 114.342 391.081 115.191C391.102 116.888 391.176 119.308 391.385 122.205C391.803 127.998 392.762 135.71 394.931 143.369C397.097 151.023 400.481 158.662 405.774 164.272C411.083 169.899 418.296 173.467 428.049 172.977C428.311 172.964 428.513 172.741 428.5 172.478C428.487 172.216 428.263 172.014 428.001 172.028C418.544 172.503 411.595 169.057 406.466 163.62C401.321 158.166 397.992 150.691 395.846 143.11C393.701 135.535 392.749 127.891 392.334 122.137C392.126 119.261 392.053 116.86 392.032 115.179C392.021 114.338 392.023 113.678 392.028 113.229C392.031 113.004 392.034 112.832 392.036 112.716C392.038 112.659 392.039 112.615 392.04 112.586L392.041 112.554L392.041 112.546L392.041 112.544C392.041 112.544 392.041 112.544 391.566 112.529L392.041 112.544C392.048 112.327 391.907 112.133 391.698 112.072C389.555 111.451 388.391 110.628 387.799 109.805C387.217 108.995 387.141 108.122 387.316 107.281C387.493 106.428 387.926 105.629 388.33 105.03C388.53 104.734 388.719 104.493 388.856 104.328C388.925 104.245 388.981 104.181 389.019 104.139C389.037 104.118 389.052 104.102 389.061 104.092L389.071 104.082L389.073 104.08C389.196 103.951 389.237 103.764 389.179 103.596C389.12 103.428 388.973 103.306 388.796 103.281L388.729 103.751C388.796 103.281 388.796 103.281 388.796 103.281L388.794 103.281L388.782 103.279C388.772 103.277 388.756 103.275 388.735 103.272C388.693 103.265 388.63 103.255 388.548 103.241C388.384 103.213 388.146 103.17 387.85 103.109C387.258 102.987 386.44 102.796 385.536 102.519C383.71 101.958 381.606 101.065 380.273 99.7344C380.117 99.5794 380.034 99.4606 379.994 99.3774C379.974 99.3374 379.967 99.3107 379.965 99.2958C379.964 99.2885 379.963 99.2838 379.963 99.2815C379.963 99.2792 379.964 99.2783 379.964 99.2783C379.964 99.2783 379.964 99.2779 379.964 99.2769C379.965 99.2759 379.966 99.2732 379.968 99.269C379.974 99.2603 379.986 99.2438 380.012 99.2212C380.067 99.1735 380.164 99.1143 380.32 99.0528C380.97 98.7964 382.19 98.6702 383.741 98.6346C385.268 98.5996 387.036 98.6521 388.734 98.7141C389.035 98.7251 389.333 98.7363 389.628 98.7475C390.99 98.7989 392.267 98.8471 393.267 98.8471C393.436 98.8471 393.699 98.928 394.071 99.1642C394.435 99.3948 394.857 99.7441 395.331 100.208C396.278 101.135 397.388 102.472 398.598 104.097C401.018 107.344 403.801 111.682 406.44 116.031C409.077 120.378 411.565 124.726 413.394 127.988C414.308 129.619 415.057 130.978 415.578 131.929C415.838 132.405 416.041 132.778 416.179 133.033C416.223 133.114 416.261 133.184 416.292 133.24C416.309 133.272 416.324 133.3 416.336 133.323L416.389 133.421L416.39 133.422C416.39 133.422 416.39 133.422 416.809 133.198L416.39 133.422C416.486 133.601 416.685 133.699 416.886 133.666C417.086 133.633 417.244 133.477 417.278 133.276C419.815 118.218 426.218 106.45 431.99 98.4448C434.876 94.4426 437.602 91.3831 439.604 89.326C440.605 88.2975 441.426 87.5198 441.994 87.0004C442.278 86.7406 442.5 86.5455 442.649 86.4159C442.724 86.3511 442.781 86.3027 442.818 86.2707C442.837 86.2548 442.851 86.2429 442.861 86.2352L442.871 86.2268L442.873 86.2249" fill="white"/>
</svg>
